<?xml version="1.0" standalone="no"?>
<!DOCTYPE svg PUBLIC "-//W3C//DTD SVG 20010904//EN"
 "http://www.w3.org/TR/2001/REC-SVG-20010904/DTD/svg10.dtd">
<svg version="1.0" xmlns="http://www.w3.org/2000/svg"
 width="100.000000pt" height="100.000000pt" viewBox="0 0 100.000000 100.000000"
 preserveAspectRatio="xMidYMid meet">

<g transform="translate(0.000000,100.000000) scale(0.100000,-0.100000)"
fill="currentColor" stroke="currentColor">
<path d="M399 894 c-59 -18 -133 -83 -164 -145 -34 -65 -45 -152 -45 -351 0
-183 -3 -193 -61 -205 -37 -7 -37 -27 -1 -63 35 -34 90 -47 141 -31 81 24 101
81 101 288 0 118 1 125 25 148 13 14 34 25 47 25 35 1 107 37 138 70 48 51 54
29 60 -219 4 -160 10 -224 20 -245 43 -85 173 -101 230 -28 27 34 25 48 -9 55
-57 12 -58 15 -63 269 -3 219 -5 236 -27 280 -25 53 -58 81 -113 96 -21 6 -50
19 -65 30 -63 43 -132 52 -214 26z m157 -19 c19 -8 47 -24 61 -35 14 -11 35
-20 47 -20 32 0 83 -35 103 -72 15 -28 19 -67 23 -274 5 -224 6 -244 25 -264
11 -12 30 -26 43 -31 31 -12 28 -26 -10 -50 -45 -28 -111 -21 -147 15 l-26 26
-5 218 c-6 224 -12 256 -54 291 -9 8 -16 29 -16 50 0 25 -3 32 -9 22 -5 -8 -7
-29 -4 -48 5 -29 1 -38 -31 -68 -20 -19 -56 -40 -79 -46 -125 -34 -129 -41
-135 -252 -4 -150 -6 -160 -29 -187 -38 -46 -112 -52 -158 -15 -17 14 -17 16
-3 11 26 -8 22 3 -4 13 l-23 9 25 10 c14 5 34 20 45 32 18 20 20 40 25 249 6
253 11 275 78 344 75 78 176 107 258 72z"/>
<path d="M551 689 c-22 -30 -82 -63 -132 -73 -38 -8 -77 -42 -100 -88 -17 -33
-21 -65 -25 -186 -3 -97 -1 -140 5 -127 5 11 10 76 11 145 1 180 32 237 142
254 28 5 53 19 86 51 26 24 44 46 41 49 -3 3 -16 -8 -28 -25z"/>
<path d="M218 143 c7 -3 16 -2 19 1 4 3 -2 6 -13 5 -11 0 -14 -3 -6 -6z"/>
</g>
</svg>
