<?xml version="1.0" standalone="no"?>
<!DOCTYPE svg PUBLIC "-//W3C//DTD SVG 20010904//EN"
 "http://www.w3.org/TR/2001/REC-SVG-20010904/DTD/svg10.dtd">
<svg version="1.0" xmlns="http://www.w3.org/2000/svg"
 width="100.000000pt" height="55.000000pt" viewBox="0 0 100.000000 55.000000"
 preserveAspectRatio="xMidYMid meet">

<g transform="translate(0.000000,55.000000) scale(0.100000,-0.100000)"
fill="currentColor" stroke="currentColor">
<path d="M300 501 c-14 -5 -76 -34 -137 -65 -62 -31 -119 -56 -127 -56 -71 0
60 -176 199 -269 99 -66 160 -86 265 -86 105 0 166 20 265 86 139 93 270 269
199 269 -8 0 -68 27 -134 60 -67 33 -140 63 -164 66 -57 8 -109 -10 -141 -48
l-25 -30 -22 27 c-37 47 -111 66 -178 46z m161 -57 l39 -38 40 39 c38 37 45
40 99 40 52 0 72 -7 185 -65 70 -35 129 -67 131 -70 8 -13 -66 -109 -125 -162
-101 -92 -226 -148 -330 -148 -104 0 -229 56 -330 148 -65 58 -135 152 -122
163 11 11 204 110 242 125 19 8 57 12 83 10 40 -3 55 -10 88 -42z"/>
<path d="M135 319 c131 -44 264 -62 415 -55 69 3 141 10 160 16 l35 10 -40 -5
c-191 -25 -380 -13 -535 32 -123 37 -139 37 -35 2z"/>
<path d="M868 323 c7 -3 16 -2 19 1 4 3 -2 6 -13 5 -11 0 -14 -3 -6 -6z"/>
<path d="M786 301 c-3 -4 6 -6 19 -3 14 2 25 6 25 8 0 8 -39 4 -44 -5z"/>
</g>
</svg>
