<?xml version="1.0" standalone="no"?>
<!DOCTYPE svg PUBLIC "-//W3C//DTD SVG 20010904//EN"
 "http://www.w3.org/TR/2001/REC-SVG-20010904/DTD/svg10.dtd">
<svg version="1.0" xmlns="http://www.w3.org/2000/svg"
 width="50.000000pt" height="50.000000pt" viewBox="0 0 50.000000 50.000000"
 preserveAspectRatio="xMidYMid meet">

<g transform="translate(0.000000,50.000000) scale(0.100000,-0.100000)"
fill="currentColor" stroke="currentColor">
<path d="M155 456 c-60 -28 -87 -56 -114 -116 -36 -79 -19 -183 42 -249 33
-36 115 -71 167 -71 52 0 134 35 167 71 34 37 63 110 63 159 0 52 -35 134 -71
167 -37 34 -110 63 -159 63 -27 0 -65 -10 -95 -24z m85 -39 c0 -39 -3 -44 -34
-58 -35 -16 -35 -16 -66 16 -34 36 -32 42 31 69 59 26 69 22 69 -27z m69 33
c18 -5 45 -17 58 -26 l25 -16 -31 -32 c-32 -33 -32 -33 -67 -17 -31 14 -34 19
-34 58 0 47 0 47 49 33z m-168 -156 c-14 -31 -19 -34 -58 -34 -49 0 -52 8 -28
67 27 64 34 68 70 33 32 -31 32 -31 16 -66z m293 58 c7 -15 17 -42 21 -59 l7
-33 -44 0 c-40 0 -45 3 -59 34 -16 34 -15 35 14 65 34 33 41 32 61 -7z m-135
-16 c47 -25 63 -83 37 -135 -35 -66 -137 -66 -172 0 -47 91 44 182 135 135z
m-158 -130 c16 -35 16 -35 -16 -66 -36 -35 -43 -31 -70 33 -24 59 -21 67 28
67 39 0 44 -3 58 -34z m319 26 c0 -18 -21 -77 -36 -99 l-16 -25 -32 31 c-33
32 -33 32 -17 67 14 31 19 34 58 34 24 0 43 -3 43 -8z m-220 -149 c0 -24 -3
-43 -8 -43 -18 0 -77 21 -99 36 l-25 16 31 32 c32 33 32 33 67 17 31 -14 34
-19 34 -58z m144 5 c-8 -13 -55 -35 -91 -43 l-33 -7 0 44 c0 40 3 46 33 59 31
15 33 14 64 -15 18 -16 30 -33 27 -38z"/>
</g>
</svg>
