<?xml version="1.0" encoding="UTF-8"?>
<!DOCTYPE svg PUBLIC "-//W3C//DTD SVG 1.1//EN" "http://www.w3.org/Graphics/SVG/1.1/DTD/svg11.dtd">
<svg xmlns="http://www.w3.org/2000/svg" version="1.1" width="64px" height="64px"  viewBox="0 0 60 60" style="shape-rendering:geometricPrecision; text-rendering:geometricPrecision; image-rendering:optimizeQuality; fill-rule:evenodd; clip-rule:evenodd" xmlns:xlink="http://www.w3.org/1999/xlink">
<g><path style="opacity:1"  fill="currentColor" stroke="currentColor" d="M 44.5,5.5 C 46.1667,5.5 47.8333,5.5 49.5,5.5C 49.3145,9.44797 48.6478,13.2813 47.5,17C 52.496,17.6107 57.496,18.1107 62.5,18.5C 57.8658,31.2699 51.5324,43.1032 43.5,54C 30.4379,61.4577 18.9379,59.6244 9,48.5C 7.1136,51.242 4.6136,52.9087 1.5,53.5C 2.09132,50.3864 3.75799,47.8864 6.5,46C -1.06251,34.3066 0.270819,23.64 10.5,14C 12.5,13 14.5,12 16.5,11C 25.9473,9.04053 35.2807,7.20719 44.5,5.5 Z M 42.5,9.5 C 43.5,9.5 44.5,9.5 45.5,9.5C 44.2884,16.8129 43.1218,24.1462 42,31.5C 41.2159,40.2486 36.7159,46.082 28.5,49C 22.3323,50.3544 16.6656,49.3544 11.5,46C 12.5,45 13.5,44 14.5,43C 20.4908,42.5005 26.4908,42.3338 32.5,42.5C 32.5,41.5 32.5,40.5 32.5,39.5C 27.8215,39.6658 23.1548,39.4992 18.5,39C 19.8333,37.6667 21.1667,36.3333 22.5,35C 27.1548,34.5008 31.8215,34.3342 36.5,34.5C 36.5,33.5 36.5,32.5 36.5,31.5C 33.1501,31.665 29.8168,31.4983 26.5,31C 29.4624,26.9482 33.4624,25.4482 38.5,26.5C 38.5,25.5 38.5,24.5 38.5,23.5C 33.7283,23.6329 33.5616,22.2996 38,19.5C 38.4828,18.552 38.6495,17.552 38.5,16.5C 36.0968,16.393 34.2635,17.393 33,19.5C 32.5814,18.3279 31.9147,17.3279 31,16.5C 30.5255,20.9741 28.5255,24.6408 25,27.5C 24.8985,24.3004 24.2319,21.3004 23,18.5C 21.7313,22.6491 21.0646,26.9824 21,31.5C 19.6667,32.8333 18.3333,34.1667 17,35.5C 16.5012,31.5138 16.3345,27.5138 16.5,23.5C 15.5,23.5 14.5,23.5 13.5,23.5C 13.666,28.8437 13.4994,34.1771 13,39.5C 11.6667,40.8333 10.3333,42.1667 9,43.5C 4.125,35.3185 4.45833,27.3185 10,19.5C 12.6692,16.8358 15.8359,15.0024 19.5,14C 27.3011,12.4815 34.9677,10.9815 42.5,9.5 Z M 47.5,20.5 C 50.8131,21.0448 54.1464,21.5448 57.5,22C 53.7318,30.3696 49.5652,38.5363 45,46.5C 39.1573,54.1652 31.6573,56.6652 22.5,54C 32.8232,53.0985 39.9898,47.9319 44,38.5C 45.49,32.5502 46.6567,26.5502 47.5,20.5 Z"/></g>
</svg>
