<?xml version="1.0" standalone="no"?>
<!DOCTYPE svg PUBLIC "-//W3C//DTD SVG 20010904//EN"
 "http://www.w3.org/TR/2001/REC-SVG-20010904/DTD/svg10.dtd">
<svg version="1.0" xmlns="http://www.w3.org/2000/svg"
 width="48.000000pt" height="48.000000pt" viewBox="0 0 48.000000 48.000000"
 preserveAspectRatio="xMidYMid meet">

<g transform="translate(0.000000,48.000000) scale(0.100000,-0.100000)"
fill="currentColor" stroke="currentColor">
<path d="M170 427 c-78 -25 -140 -129 -127 -212 14 -87 65 -144 150 -166 147
-40 279 98 237 248 -31 107 -147 166 -260 130z m50 -79 l0 -62 -40 39 c-22 21
-40 43 -40 48 0 7 55 36 73 37 4 0 7 -28 7 -62z m85 48 c19 -8 35 -19 35 -23
0 -5 -18 -27 -40 -48 l-40 -39 0 62 c0 34 2 62 5 62 3 0 21 -7 40 -14z m-145
-101 l44 -45 -61 0 c-34 0 -64 4 -68 10 -7 11 21 80 32 80 5 0 29 -20 53 -45z
m236 10 c8 -20 12 -40 9 -45 -4 -6 -34 -10 -68 -10 l-61 0 44 45 c24 25 48 45
53 45 4 0 15 -16 23 -35z m-241 -125 c-21 -22 -43 -40 -48 -40 -7 0 -37 60
-37 75 0 3 28 5 62 5 l62 0 -39 -40z m255 35 c0 -15 -30 -75 -37 -75 -5 0 -27
18 -48 40 l-39 40 62 0 c34 0 62 -2 62 -5z m-193 -142 c-7 -6 -77 24 -77 34 0
4 17 24 38 46 l37 38 3 -57 c2 -31 1 -58 -1 -61z m123 34 c0 -7 -60 -37 -75
-37 -3 0 -5 28 -5 62 l0 62 40 -39 c22 -21 40 -43 40 -48z"/>
</g>
</svg>
