<?xml version="1.0" encoding="UTF-8"?>
<!DOCTYPE svg PUBLIC "-//W3C//DTD SVG 1.1//EN" "http://www.w3.org/Graphics/SVG/1.1/DTD/svg11.dtd">
<svg xmlns="http://www.w3.org/2000/svg" version="1.1" width="22px" height="22px" viewBox="0 0 60 60" style="shape-rendering:geometricPrecision; text-rendering:geometricPrecision; image-rendering:optimizeQuality; fill-rule:evenodd; clip-rule:evenodd" xmlns:xlink="http://www.w3.org/1999/xlink">
<g><path style="opacity:1" fill="currentColor" stroke="currentColor" d="M 42.5,12.5 C 43.8068,11.8466 45.1401,11.1799 46.5,10.5C 49.279,13.1498 52.6123,14.8165 56.5,15.5C 57.952,18.2815 57.6187,20.7815 55.5,23C 57.6483,25.0749 57.9817,27.4082 56.5,30C 53.1454,30.5459 49.8121,30.3792 46.5,29.5C 40.2356,30.5589 40.069,31.8923 46,33.5C 49.7254,32.3189 53.3921,32.3189 57,33.5C 57.8959,36.025 57.3959,38.1917 55.5,40C 57.6187,42.2185 57.952,44.7185 56.5,47.5C 52.6123,48.1835 49.279,49.8502 46.5,52.5C 45.1401,51.8201 43.8068,51.1534 42.5,50.5C 42.7851,54.7166 40.7851,56.8832 36.5,57C 34.8208,60.297 32.1541,61.297 28.5,60C 27.6634,58.9887 27.33,57.8221 27.5,56.5C 22.6606,57.3234 20.3272,55.3234 20.5,50.5C 17.2567,53.3883 14.5901,52.8883 12.5,49C 10.444,48.6892 8.44397,48.1892 6.5,47.5C 5.04797,44.7185 5.3813,42.2185 7.5,40C 5.35166,37.9251 5.01832,35.5918 6.5,33C 9.85457,32.4541 13.1879,32.6208 16.5,33.5C 22.7644,32.4411 22.931,31.1077 17,29.5C 13.2746,30.6811 9.60794,30.6811 6,29.5C 5.10407,26.975 5.60407,24.8083 7.5,23C 5.3813,20.7815 5.04797,18.2815 6.5,15.5C 8.37072,14.233 10.2041,14.233 12,15.5C 13.5448,10.6391 16.3781,9.63906 20.5,12.5C 20.2149,8.28344 22.2149,6.11678 26.5,6C 28.1792,2.70295 30.8459,1.70295 34.5,3C 35.3366,4.01127 35.67,5.17793 35.5,6.5C 40.3394,5.6766 42.6728,7.6766 42.5,12.5 Z M 30.5,5.5 C 31.4959,5.41423 32.3292,5.74756 33,6.5C 33.1922,8.5767 33.6922,10.5767 34.5,12.5C 35.8333,11.5 37.1667,10.5 38.5,9.5C 38.8333,9.83333 39.1667,10.1667 39.5,10.5C 37.8509,12.6499 36.0176,14.6499 34,16.5C 31.7136,25.3893 34.5469,27.7226 42.5,23.5C 43.4517,20.3046 44.785,17.3046 46.5,14.5C 47.0522,16.0026 47.0522,17.6693 46.5,19.5C 49.0488,19.6126 51.3821,18.9459 53.5,17.5C 53.8333,18 54.1667,18.5 54.5,19C 52.8253,20.5019 51.1587,22.0019 49.5,23.5C 50.9358,24.9337 52.6025,26.1004 54.5,27C 50.7602,27.0782 47.0935,26.7448 43.5,26C 36.5976,30.5935 37.0976,34.4268 45,37.5C 48.0352,35.9583 51.2019,35.4583 54.5,36C 52.6025,36.8996 50.9358,38.0663 49.5,39.5C 50.4363,40.9744 51.7697,41.9744 53.5,42.5C 54.8333,43.5 54.8333,44.5 53.5,45.5C 51.5866,44.627 49.7533,43.627 48,42.5C 46.7616,44.4347 46.2616,46.4347 46.5,48.5C 45.0188,45.593 43.6855,42.593 42.5,39.5C 34.5469,35.2774 31.7136,37.6107 34,46.5C 36.0176,48.3501 37.8509,50.3501 39.5,52.5C 39.1667,52.8333 38.8333,53.1667 38.5,53.5C 37.1667,52.5 35.8333,51.5 34.5,50.5C 32.5,59.8333 30.5,59.8333 28.5,50.5C 27.1667,51.5 25.8333,52.5 24.5,53.5C 24.1667,53.1667 23.8333,52.8333 23.5,52.5C 25.1491,50.3501 26.9824,48.3501 29,46.5C 31.2864,37.6107 28.4531,35.2774 20.5,39.5C 19.5483,42.6954 18.215,45.6954 16.5,48.5C 15.9478,46.9974 15.9478,45.3307 16.5,43.5C 13.9512,43.3874 11.6179,44.0541 9.5,45.5C 9.16667,45 8.83333,44.5 8.5,44C 10.1747,42.4981 11.8413,40.9981 13.5,39.5C 12.0642,38.0663 10.3975,36.8996 8.5,36C 12.2398,35.9218 15.9065,36.2552 19.5,37C 26.3143,32.7151 25.981,28.8818 18.5,25.5C 15.2848,26.9731 11.9514,27.4731 8.5,27C 10.3975,26.1004 12.0642,24.9337 13.5,23.5C 11.8413,22.0019 10.1747,20.5019 8.5,19C 8.83333,18.5 9.16667,18 9.5,17.5C 11.4134,18.373 13.2467,19.373 15,20.5C 16.2384,18.5653 16.7384,16.5653 16.5,14.5C 17.9812,17.407 19.3145,20.407 20.5,23.5C 28.4531,27.7226 31.2864,25.3893 29,16.5C 26.9824,14.6499 25.1491,12.6499 23.5,10.5C 23.8333,10.1667 24.1667,9.83333 24.5,9.5C 25.8333,10.5 27.1667,11.5 28.5,12.5C 29.2749,10.1568 29.9416,7.82343 30.5,5.5 Z M 20.5,12.5 C 21.9345,14.4903 23.7678,16.157 26,17.5C 26.7975,19.2588 26.6309,20.9255 25.5,22.5C 22.0635,20.1733 20.3968,16.84 20.5,12.5 Z M 42.5,12.5 C 42.3375,16.694 40.6709,20.0274 37.5,22.5C 36.3691,20.9255 36.2025,19.2588 37,17.5C 38.8119,15.6997 40.6452,14.0331 42.5,12.5 Z M 20.5,50.5 C 20.6625,46.306 22.3291,42.9726 25.5,40.5C 26.6309,42.0745 26.7975,43.7412 26,45.5C 24.1881,47.3003 22.3548,48.9669 20.5,50.5 Z M 42.5,50.5 C 41.0655,48.5097 39.2322,46.843 37,45.5C 36.2025,43.7412 36.3691,42.0745 37.5,40.5C 40.6709,42.9726 42.3375,46.306 42.5,50.5 Z"/></g>
<g><path style="opacity:1" fill="#000000" d="M 25.5,29.5 C 26.5862,29.62 27.2528,30.2867 27.5,31.5C 27.1667,32.1667 26.8333,32.8333 26.5,33.5C 25.5713,32.3112 25.238,30.9778 25.5,29.5 Z"/></g>
<g><path style="opacity:1" fill="#000000" d="M 30.5,29.5 C 31.5862,29.62 32.2528,30.2867 32.5,31.5C 32.1667,32.1667 31.8333,32.8333 31.5,33.5C 30.5713,32.3112 30.238,30.9778 30.5,29.5 Z"/></g>
<g><path style="opacity:1" fill="#000000" d="M 35.5,29.5 C 36.5862,29.62 37.2528,30.2867 37.5,31.5C 37.1667,32.1667 36.8333,32.8333 36.5,33.5C 35.5713,32.3112 35.238,30.9778 35.5,29.5 Z"/></g>
</svg>
