<svg width="25" height="25" viewBox="0 0 50 50" version="1.1" xmlns="http://www.w3.org/2000/svg" desc="Created with imagetracer.js version 1.2.6" ><path fill="currentColor" stroke="currentColor" stroke-width="1" opacity="0.9294117647058824" d="M 24 4 L 26 4.5 L 26 12 L 24 11.5 L 24 4 Z " /><path fill="currentColor" stroke="currentColor" stroke-width="1" opacity="0.9294117647058824" d="M 10 10 L 16 14.5 Q 16.8 16.8 14.5 16 L 10 10 Z " /><path fill="currentColor" stroke="currentColor" stroke-width="1" opacity="0.9294117647058824" d="M 38.5 10 Q 40.8 9.3 40 11.5 L 34 16 L 38.5 10 Z " /><path fill="currentColor" stroke="currentColor" stroke-width="1" opacity="0.9294117647058824" d="M 23.5 15 Q 31.6 14.9 34 20.5 L 35 26.5 L 29.5 34 L 23.5 35 L 16 29.5 L 15 23.5 L 20.5 16 L 23.5 15 Z M 23 17 L 21 18 L 17 23 L 18 30 L 23 33 L 30 32 L 33 28 L 32 21 Q 30 16 23 17 Z " /><path fill="currentColor" stroke="currentColor" stroke-width="1" opacity="0.9294117647058824" d="M 4 24 L 11.5 24 L 12 26 L 4.5 26 L 4 24 Z " /><path fill="currentColor" stroke="currentColor" stroke-width="1" opacity="0.9294117647058824" d="M 38 24 L 45.5 24 L 46 26 L 38.5 26 L 38 24 Z " /><path fill="currentColor" stroke="currentColor" stroke-width="1" opacity="0.9294117647058824" d="M 14.5 34 Q 16.8 33.3 16 35.5 L 10 40 L 14.5 34 Z " /><path fill="currentColor" stroke="currentColor" stroke-width="1" opacity="0.9294117647058824" d="M 34 34 L 40 38.5 Q 40.8 40.8 38.5 40 L 34 34 Z " /><path fill="currentColor" stroke="currentColor" stroke-width="1" opacity="0.9294117647058824" d="M 24 38 L 26 38.5 L 26 46 L 24 45.5 L 24 38 Z " /><path fill="currentColor" stroke="currentColor" stroke-width="1" opacity="0" d="M 0 0 L 50 0 L 50 50 L 0 50 L 0 0 Z M 24 4 L 24 12 L 26 12 L 26 5 L 24 4 Z M 11 9 L 9 11 L 10 13 L 15 16 Q 16 18 17 16 L 16 14 L 11 9 Z M 40 9 L 38 10 L 34 15 Q 32 16 35 17 L 37 16 L 40 12 Q 42 10 40 9 Z M 22 15 L 20 16 L 15 22 L 16 31 L 22 35 L 31 34 L 35 29 L 34 20 Q 32 13 22 15 Z M 3 24 L 4 26 L 12 26 L 12 24 L 3 24 Z M 37 24 L 38 26 L 46 26 L 46 24 L 37 24 Z M 16 33 L 9 39 L 11 41 L 16 37 L 16 33 Z M 35 33 L 33 35 L 34 37 L 39 40 Q 40 42 41 40 L 40 38 L 35 33 Z M 24 38 L 24 46 L 26 46 L 26 39 L 24 38 Z " /><path fill="currentColor" stroke="currentColor" stroke-width="1" opacity="0" d="M 21.5 18 Q 30.3 16.3 32 21.5 Q 33.8 30.3 28.5 32 Q 19.8 33.8 18 28.5 Q 16.3 19.8 21.5 18 Z " /><path fill="currentColor" stroke="currentColor" stroke-width="1" opacity="0.07058823529411765" d="M 10.5 9 L 9.5 11 L 10.5 9 Z " /><path fill="currentColor" stroke="currentColor" stroke-width="1" opacity="0.07058823529411765" d="M 39.5 9 L 40.5 11 L 39.5 9 Z " /><path fill="currentColor" stroke="currentColor" stroke-width="1" opacity="0.07058823529411765" d="M 12.5 10 L 15.5 14 L 12.5 10 Z " /><path fill="currentColor" stroke="currentColor" stroke-width="1" opacity="0.07058823529411765" d="M 37.5 10 L 34.5 14 L 37.5 10 Z " /><path fill="currentColor" stroke="currentColor" stroke-width="1" opacity="0.07058823529411765" d="M 10.5 12 L 13.5 16 L 10.5 12 Z " /><path fill="currentColor" stroke="currentColor" stroke-width="1" opacity="0.07058823529411765" d="M 39.5 12 L 36.5 16 L 39.5 12 Z " /><path fill="currentColor" stroke="currentColor" stroke-width="1" opacity="0.07058823529411765" d="M 16.5 15 L 15.5 17 L 16.5 15 Z " /><path fill="currentColor" stroke="currentColor" stroke-width="1" opacity="0.07058823529411765" d="M 33.5 15 L 34.5 17 L 33.5 15 Z " /><path fill="currentColor" stroke="currentColor" stroke-width="1" opacity="0.07058823529411765" d="M 34.5 33 L 33.5 35 L 34.5 33 Z " /><path fill="currentColor" stroke="currentColor" stroke-width="1" opacity="0.07058823529411765" d="M 13.5 34 L 10 38.5 L 11 40.5 L 9 39.5 L 13.5 34 Z " /><path fill="currentColor" stroke="currentColor" stroke-width="1" opacity="0.07058823529411765" d="M 36.5 34 L 39.5 38 L 36.5 34 Z " /><path fill="currentColor" stroke="currentColor" stroke-width="1" opacity="0.07058823529411765" d="M 15.5 36 L 12.5 40 L 15.5 36 Z " /><path fill="currentColor" stroke="currentColor" stroke-width="1" opacity="0.07058823529411765" d="M 34.5 36 L 37.5 40 L 34.5 36 Z " /><path fill="currentColor" stroke="currentColor" stroke-width="1" opacity="0.07058823529411765" d="M 40.5 39 L 39.5 41 L 40.5 39 Z " /><path fill="currentColor" stroke="currentColor" stroke-width="1" opacity="0.43137254901960786" d="M 18.5 17 L 17.5 19 L 18.5 17 Z " /><path fill="currentColor" stroke="currentColor" stroke-width="1" opacity="0.43137254901960786" d="M 31.5 17 L 32.5 19 L 31.5 17 Z " /><path fill="currentColor" stroke="currentColor" stroke-width="1" opacity="0.43137254901960786" d="M 16.5 30 L 19.5 34 L 16.5 30 Z " /><path fill="currentColor" stroke="currentColor" stroke-width="1" opacity="0.43137254901960786" d="M 33.5 30 L 30.5 34 L 33.5 30 Z " /></svg>