<?xml version="1.0" standalone="no"?>
<!DOCTYPE svg PUBLIC "-//W3C//DTD SVG 20010904//EN"
 "http://www.w3.org/TR/2001/REC-SVG-20010904/DTD/svg10.dtd">
<svg version="1.0" xmlns="http://www.w3.org/2000/svg"
 width="50.000000pt" height="50.000000pt" viewBox="0 0 50.000000 50.000000"
 preserveAspectRatio="xMidYMid meet">

<g transform="translate(0.000000,50.000000) scale(0.100000,-0.100000)"
fill="currentColor" stroke="currentColor">
<path d="M217 352 c-22 -24 -21 -46 0 -68 13 -13 15 -18 5 -22 -18 -6 -74
-121 -68 -139 4 -9 14 -13 26 -10 17 4 19 -1 22 -52 l3 -56 45 0 45 0 3 56 c3
51 5 56 22 52 12 -3 22 1 26 10 6 18 -50 133 -68 139 -10 4 -8 9 5 22 22 22
22 49 -1 69 -24 22 -45 21 -65 -1z m53 -17 c17 -20 5 -45 -20 -45 -11 0 -23 7
-26 15 -6 15 11 45 26 45 4 0 13 -7 20 -15z m29 -142 c17 -31 29 -58 27 -61
-3 -2 -14 13 -25 35 l-20 38 -1 -92 c0 -55 -4 -93 -10 -93 -6 0 -10 27 -10 60
0 33 -4 60 -10 60 -6 0 -10 -27 -10 -60 0 -33 -4 -60 -10 -60 -6 0 -10 38 -10
93 l-1 92 -20 -38 c-11 -22 -22 -37 -25 -35 -2 3 10 30 27 61 20 38 37 57 49
57 12 0 29 -19 49 -57z"/>
</g>
</svg>
