<?xml version="1.0" encoding="UTF-8"?>
<!DOCTYPE svg PUBLIC "-//W3C//DTD SVG 1.1//EN" "http://www.w3.org/Graphics/SVG/1.1/DTD/svg11.dtd">
<svg width="25" height="35" viewBox="0 -36 70 100" xmlns="http://www.w3.org/2000/svg" version="1.1" style="shape-rendering:geometricPrecision; text-rendering:geometricPrecision; image-rendering:optimizeQuality; fill-rule:evenodd; clip-rule:evenodd" xmlns:xlink="http://www.w3.org/1999/xlink">
<g><path style="opacity:1" fill="currentColor" stroke="currentColor" d="M 26.5,0.5 C 36.0252,-1.5805 41.6918,2.08617 43.5,11.5C 55.8405,8.00351 61.3405,12.6702 60,25.5C 58.6924,27.6414 57.1924,29.6414 55.5,31.5C 60.7143,36.1893 61.8809,41.856 59,48.5C 54.5125,52.5392 49.3458,53.5392 43.5,51.5C 41.6928,61.0762 36.0261,64.5762 26.5,62C 22.3056,59.7875 19.9723,56.2875 19.5,51.5C 6.53129,54.6976 1.03129,49.6976 3,36.5C 4.04138,34.4148 5.54138,32.7481 7.5,31.5C 2.28572,26.8107 1.11906,21.144 4,14.5C 8.46245,9.61863 13.6291,8.61863 19.5,11.5C 20.0967,6.62094 22.43,2.95427 26.5,0.5 Z M 35.5,23.5 C 32.8333,23.5 30.1667,23.5 27.5,23.5C 27.0453,20.5379 25.8786,17.8713 24,15.5C 22.5,6.33333 26.3333,2.5 35.5,4C 39.0349,6.70714 40.2016,10.2071 39,14.5C 37.5574,17.4253 36.3907,20.4253 35.5,23.5 Z M 27.5,23.5 C 25.8333,24.5 24.5,25.8333 23.5,27.5C 23.5,30.1667 23.5,32.8333 23.5,35.5C 24.5,37.1667 25.8333,38.5 27.5,39.5C 26.325,39.281 25.325,39.6143 24.5,40.5C 22.1172,45.2148 18.4506,48.5481 13.5,50.5C 5.66198,48.4547 3.49532,43.788 7,36.5C 9.79535,34.6154 12.6287,32.9488 15.5,31.5C 13.5839,29.6827 11.2506,28.516 8.5,28C 3.2929,20.617 4.95956,15.4504 13.5,12.5C 18.4506,14.4519 22.1172,17.7852 24.5,22.5C 25.325,23.3857 26.325,23.719 27.5,23.5 Z M 54.5,15.5 C 53.5,15.5 52.5,15.5 51.5,15.5C 52.6392,18.0037 53.3059,20.6703 53.5,23.5C 54.5,23.5 55.5,23.5 56.5,23.5C 56.552,21.0971 56.2186,18.7638 55.5,16.5C 57.9784,19.5298 58.1451,22.8632 56,26.5C 53.0612,28.0804 50.2279,29.747 47.5,31.5C 50.2279,33.253 53.0612,34.9196 56,36.5C 59.5047,43.788 57.338,48.4547 49.5,50.5C 44.5494,48.5481 40.8828,45.2148 38.5,40.5C 37.675,39.6143 36.675,39.281 35.5,39.5C 37.1667,38.5 38.5,37.1667 39.5,35.5C 39.5,32.8333 39.5,30.1667 39.5,27.5C 38.5,25.8333 37.1667,24.5 35.5,23.5C 36.675,23.719 37.675,23.3857 38.5,22.5C 39.5431,19.3198 41.5431,16.9865 44.5,15.5C 44.7911,16.6491 45.6244,17.3158 47,17.5C 48.6624,17.6125 49.8291,16.9458 50.5,15.5C 48.9547,14.5481 47.288,14.2148 45.5,14.5C 48.7355,11.9279 51.7355,12.2612 54.5,15.5 Z M 28.5,26.5 C 36.4863,25.998 38.4863,29.1647 34.5,36C 26.424,36.8047 24.424,33.638 28.5,26.5 Z M 27.5,39.5 C 30.1667,39.5 32.8333,39.5 35.5,39.5C 36.3907,42.5747 37.5574,45.5747 39,48.5C 39.949,57.2172 36.1156,60.7172 27.5,59C 23.7235,56.0453 22.5568,52.212 24,47.5C 25.8786,45.1287 27.0453,42.4621 27.5,39.5 Z"/></g>
<g><path style="opacity:1" fill="#000000" d="M 45.5,14.5 C 47.288,14.2148 48.9547,14.5481 50.5,15.5C 49.8291,16.9458 48.6624,17.6125 47,17.5C 45.6244,17.3158 44.7911,16.6491 44.5,15.5C 45.1667,15.5 45.5,15.1667 45.5,14.5 Z"/></g>
<g><path style="opacity:1" fill="#000000" d="M 54.5,15.5 C 54.5,16.1667 54.8333,16.5 55.5,16.5C 56.2186,18.7638 56.552,21.0971 56.5,23.5C 55.5,23.5 54.5,23.5 53.5,23.5C 53.3059,20.6703 52.6392,18.0037 51.5,15.5C 52.5,15.5 53.5,15.5 54.5,15.5 Z"/></g>
<g><path style="opacity:1" fill="#000000" d="M 30.5,17.5 C 31.5862,17.62 32.2528,18.2867 32.5,19.5C 32.1667,20.1667 31.8333,20.8333 31.5,21.5C 30.5713,20.3112 30.238,18.9778 30.5,17.5 Z"/></g>
<g><path style="opacity:1" fill="#000000" d="M 23.5,27.5 C 20.4124,27.8034 18.7458,26.4701 18.5,23.5C 21.5876,23.1966 23.2542,24.5299 23.5,27.5 Z"/></g>
<g><path style="opacity:1" fill="#000000" d="M 27.5,23.5 C 30.1667,23.5 32.8333,23.5 35.5,23.5C 37.1667,24.5 38.5,25.8333 39.5,27.5C 39.5,30.1667 39.5,32.8333 39.5,35.5C 38.5,37.1667 37.1667,38.5 35.5,39.5C 32.8333,39.5 30.1667,39.5 27.5,39.5C 25.8333,38.5 24.5,37.1667 23.5,35.5C 23.5,32.8333 23.5,30.1667 23.5,27.5C 24.5,25.8333 25.8333,24.5 27.5,23.5 Z M 28.5,26.5 C 24.424,33.638 26.424,36.8047 34.5,36C 38.4863,29.1647 36.4863,25.998 28.5,26.5 Z"/></g>
<g><path style="opacity:1" fill="#000000" d="M 39.5,27.5 C 39.7458,24.5299 41.4124,23.1966 44.5,23.5C 44.2542,26.4701 42.5876,27.8034 39.5,27.5 Z"/></g>
<g><path style="opacity:1" fill="#000000" d="M 17.5,30.5 C 18.9778,30.238 20.3112,30.5713 21.5,31.5C 20.8333,31.8333 20.1667,32.1667 19.5,32.5C 18.2867,32.2528 17.62,31.5862 17.5,30.5 Z"/></g>
<g><path style="opacity:1" fill="#000000" d="M 41.5,30.5 C 42.9778,30.238 44.3112,30.5713 45.5,31.5C 44.8333,31.8333 44.1667,32.1667 43.5,32.5C 42.2867,32.2528 41.62,31.5862 41.5,30.5 Z"/></g>
<g><path style="opacity:1" fill="#000000" d="M 23.5,35.5 C 23.2542,38.4701 21.5876,39.8034 18.5,39.5C 18.7458,36.5299 20.4124,35.1966 23.5,35.5 Z"/></g>
<g><path style="opacity:1" fill="#000000" d="M 39.5,35.5 C 42.5876,35.1966 44.2542,36.5299 44.5,39.5C 41.4124,39.8034 39.7458,38.4701 39.5,35.5 Z"/></g>
<g><path style="opacity:1" fill="#000000" d="M 30.5,41.5 C 31.5862,41.62 32.2528,42.2867 32.5,43.5C 32.1667,44.1667 31.8333,44.8333 31.5,45.5C 30.5713,44.3112 30.238,42.9778 30.5,41.5 Z"/></g>
</svg>
